# xmcd CD database file
#
# Track frame offsets:
#	150
#	11315
#	23047
#	35961
#	47701
#	62000
#	74657
#	89401
#	104338
#	116207
#	130695
#	142873
#	154305
#	166842
#	178371
#	191747
#	207303
#	221683
#	234661
#	248457
#
# Disc length: 3496 seconds
#
# Revision: 2
# Processed by: cddbd v1.5.2PL0 Copyright (c) Steve Scherf et al.
# Submitted via: CDex 1.70beta2
#
DISCID=240da614
DTITLE=Fred Astaire - Let's Face The Music And Dance
DYEAR=2005
DGENRE=Jazz
TTITLE0=Let's Face The Music And Dance
TTITLE1=Puttin' On The Ritz
TTITLE2=A Fine Romance
TTITLE3=Top Hat, White Tie And Tails
TTITLE4=The Way You Look Tonight
TTITLE5=I'm Putting All My Eggs In One Basket
TTITLE6=Isn't This A Lovely Day?
TTITLE7=Cheek To Cheek
TTITLE8=Let Yourself Go
TTITLE9=Never Gonna Dance
TTITLE10=Nice Work If You Can Get It
TTITLE11=Shall We Dance?
TTITLE12=They All Laughed
TTITLE13=No Strings
TTITLE14=Pick Yourself Up
TTITLE15=Night And Day
TTITLE16=Let's Call The Whole Thing Off
TTITLE17=A Foggy Day (In London Town)
TTITLE18=They Can't Take That Away From Me
TTITLE19=Change Partners
EXTD=YEAR: 2005
EXTT0=
EXTT1=
EXTT2=
EXTT3=
EXTT4=
EXTT5=
EXTT6=
EXTT7=
EXTT8=
EXTT9=
EXTT10=
EXTT11=
EXTT12=
EXTT13=
EXTT14=
EXTT15=
EXTT16=
EXTT17=
EXTT18=
EXTT19=
PLAYORDER=
